<svg version="1.1" xmlns="http://www.w3.org/2000/svg" xmlns:xlink="http://www.w3.org/1999/xlink" width="500" height="500"><defs><linearGradient x1="-1652.82646" y1="201.32164" x2="-1652.82646" y2="298.67836" gradientUnits="userSpaceOnUse" id="color-1"><stop offset="0" stop-color="#ed6363"></stop><stop offset="1" stop-color="#ed6363"></stop></linearGradient></defs><g data-paper-data="{&quot;description&quot;:&quot;Logo for SOSOMIRA\n=================\n\nThis logo was generated by MarkMaker at http://emblemmatic.org/markmaker/ and may be composed of elements designed by others.\n\nThe font is Bad Script Regular designed by Gaslight and released under the OFL license via Google Fonts: https://www.google.com/fonts/specimen/Bad%20Script. The font includes this copyright statement: Copyright (c) 2011, Cyreal (www.cyreal.org a@cyreal.org) with Reserved Font Name \\\&quot;Bad Script\\\&quot;.\n\nMarkMaker uses semantic data from the Princeton University WordNet database http://wordnet.princeton.edu and font descriptions from Google Fonts https://www.google.com/fonts.&quot;}" fill="url(#color-1)" fill-rule="nonzero" stroke="none" stroke-width="1" stroke-linecap="butt" stroke-linejoin="miter" stroke-miterlimit="10" stroke-dasharray="" stroke-dashoffset="0" font-family="none" font-weight="none" font-size="none" text-anchor="none" style="mix-blend-mode: normal"><g data-paper-data="{&quot;elementType&quot;:&quot;logo&quot;}"><g data-paper-data="{&quot;elementType&quot;:&quot;text&quot;}"><g data-paper-data="{&quot;baseline&quot;:96.6796875,&quot;elementType&quot;:&quot;row&quot;}"><g data-paper-data="{&quot;baselineProportion&quot;:0.9836065573770492,&quot;fontSize&quot;:100,&quot;baseline&quot;:96.6796875,&quot;elementType&quot;:&quot;word&quot;}"><path d="M92.36686,201.32164c7.706,0 12.80034,4.1593 15.28302,12.47791c0.25794,0.41915 0.38691,0.92698 0.38691,1.52347c0,0.59649 -0.28212,1.15268 -0.84637,1.66856c-0.56425,0.51588 -1.13655,0.77382 -1.71692,0.77382c-0.99952,0 -1.59601,-0.61261 -1.78947,-1.83783c-0.4514,-2.90184 -1.67662,-5.3684 -3.67566,-7.39969c-1.99904,-2.03129 -4.54622,-3.04693 -7.64151,-3.04693c-3.0953,0 -5.43289,1.08013 -7.01278,3.24039c-1.57989,2.16026 -2.36984,4.70743 -2.36984,7.64151c0,2.93408 0.39497,5.94877 1.18492,9.04407c0.78995,3.0953 1.78141,6.19059 2.97439,9.28589c1.19298,3.0953 2.47462,6.19059 3.84494,9.28589c1.37031,3.0953 2.65196,6.20671 3.84494,9.33425c2.77287,7.2546 4.1593,13.77568 4.1593,19.56323c0,5.78756 -1.59601,11.08341 -4.78804,15.88757c-4.09482,6.28732 -10.54335,9.43098 -19.3456,9.43098c-6.73872,0 -12.56658,-1.67662 -17.48358,-5.02986c-4.91701,-3.35324 -7.37551,-8.15739 -7.37551,-14.41247c0,-6.25508 1.87007,-11.65572 5.61022,-16.20194c1.35419,-1.64438 3.01469,-3.33712 4.98149,-5.07822c0.64485,-0.54813 1.25746,-0.82219 1.83783,-0.82219c1.28971,0 1.93456,0.532 1.93456,1.59601c0,0.54813 -0.14509,1.04789 -0.43528,1.49928c-3.28875,3.03081 -5.46513,5.54574 -6.52914,7.54478c-1.77335,3.48221 -2.66002,6.83544 -2.66002,10.05971c0,3.22427 0.56425,5.80368 1.69274,7.73824c1.12849,1.93456 2.62778,3.54669 4.49785,4.8364c3.67566,2.57941 8.45564,3.86912 14.33992,3.86912c5.88429,0 10.64814,-2.32147 14.29156,-6.96441c3.12754,-3.96585 4.69131,-8.81031 4.69131,-14.53338c0,-5.72307 -2.67614,-14.80744 -8.02842,-27.25311c-5.35228,-12.44567 -8.02842,-21.09476 -8.02842,-25.94728c0,-4.85252 1.16074,-9.02795 3.48221,-12.52627c2.32147,-3.49833 5.88429,-5.24749 10.68844,-5.24749z" data-paper-data="{&quot;elementType&quot;:&quot;letter&quot;,&quot;baseline&quot;:96.6796875,&quot;baselineProportion&quot;:0.9885172241637543,&quot;fontSize&quot;:100}"></path><path d="M142.28275,247.07398c6.09386,0 9.14079,4.6107 9.14079,13.8321c0,7.19011 -1.98292,14.91223 -5.94877,23.16635c-2.67614,5.54574 -5.90041,9.54383 -9.6728,11.99427c-1.93456,1.25746 -3.9336,1.8862 -5.99713,1.8862c-3.64342,0 -6.25508,-1.45092 -7.83497,-4.35276c-1.57989,-2.90184 -2.36984,-6.02938 -2.36984,-9.38261c0,-5.99713 1.00758,-11.81694 3.02275,-17.4594c2.01517,-5.64247 4.75579,-10.33377 8.22188,-14.07392c3.46609,-3.74015 7.27878,-5.61022 11.43808,-5.61022M129.3212,263.08246c-3.48221,6.96441 -5.22331,13.76762 -5.22331,20.4096c0,4.6107 1.27359,7.706 3.82076,9.28589c0.77382,0.48364 1.6605,0.72546 2.66002,0.72546c2.06353,0 4.36888,-1.78947 6.91605,-5.3684c2.54717,-3.57894 4.69131,-7.98812 6.43241,-13.22755c1.7411,-5.23943 2.61166,-9.73728 2.61166,-13.49355c0,-3.75627 -0.21764,-6.13417 -0.65291,-7.13369c-0.43528,-0.99952 -0.93504,-1.69274 -1.49928,-2.07965c-0.56425,-0.38691 -1.49928,-0.58037 -2.80511,-0.58037c-1.30583,0 -2.73257,0.51588 -4.28021,1.54765c-2.99857,1.93456 -5.65859,5.23943 -7.98006,9.91462z" data-paper-data="{&quot;elementType&quot;:&quot;letter&quot;,&quot;baseline&quot;:50.48828125,&quot;baselineProportion&quot;:0.9828897338403042,&quot;fontSize&quot;:100}"></path><path d="M183.58986,250.84637c-3.22427,0 -4.8364,1.87007 -4.8364,5.61022c0,2.48268 0.58037,5.04598 1.7411,7.68987c1.16074,2.6439 2.14414,4.75579 2.9502,6.33568c3.12754,6.22283 4.69131,10.98669 4.69131,14.29156c0,3.30487 -0.99952,6.11804 -2.99857,8.43952c-1.99904,2.32147 -4.88476,3.70791 -8.65715,4.1593h-0.62873c-3.64342,0 -6.28732,-2.24086 -7.93169,-6.72259c-0.06449,-0.16121 -0.09673,-0.30631 -0.09673,-0.43528v-0.48364c0,-0.6771 0.20958,-1.23328 0.62873,-1.66856c0.41915,-0.43528 0.87055,-0.70128 1.35419,-0.79801h0.532c0.64485,0 1.1688,0.25794 1.57183,0.77382c0.40303,0.51588 0.78188,1.08819 1.13655,1.71692c0.35467,0.62873 0.74158,1.20104 1.16074,1.71692c0.41915,0.51588 1.14461,0.77382 2.17638,0.77382c2.1925,0 3.94167,-0.68516 5.24749,-2.05547c1.30583,-1.37031 1.95874,-2.89378 1.95874,-4.5704c0,-1.67662 -0.24182,-3.24039 -0.72546,-4.69131c-0.80607,-2.48268 -2.1925,-5.57798 -4.1593,-9.28589c-3.28875,-6.09386 -4.93313,-10.83353 -4.93313,-14.21901c0,-3.38548 0.85443,-6.15835 2.56329,-8.31861c1.70886,-2.16026 4.12706,-3.24039 7.2546,-3.24039c1.93456,0 3.59506,0.40303 4.98149,1.2091c2.61166,1.51541 3.91748,3.21621 3.91748,5.1024c0,1.8862 -0.78995,2.82929 -2.36984,2.82929c-0.58037,0 -1.05595,-0.21764 -1.42674,-0.65291c-0.37079,-0.43528 -0.76576,-0.91086 -1.18492,-1.42674c-1.12849,-1.38643 -2.43432,-2.07965 -3.91748,-2.07965z" data-paper-data="{&quot;elementType&quot;:&quot;letter&quot;,&quot;baseline&quot;:51.708984375,&quot;baselineProportion&quot;:0.9943661971830986,&quot;fontSize&quot;:100}"></path><path d="M231.61956,247.07398c6.09386,0 9.14079,4.6107 9.14079,13.8321c0,7.19011 -1.98292,14.91223 -5.94877,23.16635c-2.67614,5.54574 -5.90041,9.54383 -9.6728,11.99427c-1.93456,1.25746 -3.9336,1.8862 -5.99713,1.8862c-3.64342,0 -6.25508,-1.45092 -7.83497,-4.35276c-1.57989,-2.90184 -2.36984,-6.02938 -2.36984,-9.38261c0,-5.99713 1.00758,-11.81694 3.02275,-17.4594c2.01517,-5.64247 4.75579,-10.33377 8.22188,-14.07392c3.46609,-3.74015 7.27878,-5.61022 11.43808,-5.61022M218.65801,263.08246c-3.48221,6.96441 -5.22331,13.76762 -5.22331,20.4096c0,4.6107 1.27359,7.706 3.82076,9.28589c0.77382,0.48364 1.6605,0.72546 2.66002,0.72546c2.06353,0 4.36888,-1.78947 6.91605,-5.3684c2.54717,-3.57894 4.69131,-7.98812 6.43241,-13.22755c1.7411,-5.23943 2.61166,-9.73728 2.61166,-13.49355c0,-3.75627 -0.21764,-6.13417 -0.65291,-7.13369c-0.43528,-0.99952 -0.93504,-1.69274 -1.49928,-2.07965c-0.56425,-0.38691 -1.49928,-0.58037 -2.80511,-0.58037c-1.30583,0 -2.73257,0.51588 -4.28021,1.54765c-2.99857,1.93456 -5.65859,5.23943 -7.98006,9.91462z" data-paper-data="{&quot;elementType&quot;:&quot;letter&quot;,&quot;baseline&quot;:50.48828125,&quot;baselineProportion&quot;:0.9828897338403042,&quot;fontSize&quot;:100}"></path><path d="M258.17564,297.08235c0.51588,-1.54765 0.97534,-3.4419 1.37837,-5.68277c0.40303,-2.24086 0.92698,-4.31246 1.57183,-6.21477c2.74063,-10.93026 4.99761,-22.5215 6.77096,-34.77371c0.09673,-0.58037 0.16927,-1.12849 0.21764,-1.64438c0.04836,-0.51588 0.52394,-1.28971 1.42674,-2.32147c0.6771,-0.25794 1.17686,-0.38691 1.49928,-0.38691c0.90279,0 1.49928,0.56425 1.78947,1.69274v0.77382c-0.12897,4.70743 -0.85443,9.83401 -2.17638,15.37975l-2.46656,10.39826c0.70934,-1.48316 1.48316,-3.19202 2.32147,-5.12658c3.54669,-8.18964 6.85157,-13.98525 9.91462,-17.38685c3.06305,-3.4016 6.38405,-5.1024 9.96298,-5.1024c1.9668,0 3.57894,0.79801 4.8364,2.39402c1.25746,1.59601 1.8862,3.45803 1.8862,5.58604c0,0.32243 -0.01612,0.60455 -0.04836,0.84637c-0.03224,0.24182 -0.04836,0.4917 -0.04836,0.74964c3.57894,-4.35276 7.30296,-7.31908 11.17208,-8.89897c1.19298,-0.51588 2.39402,-0.77382 3.60312,-0.77382c1.2091,0 2.36177,0.57231 3.45803,1.71692c1.09625,1.14461 1.64438,2.6842 1.64438,4.61876c0,1.93456 -0.20958,4.01421 -0.62873,6.23895c-0.41915,2.22474 -0.9431,4.46561 -1.57183,6.72259c-0.62873,2.25699 -1.33807,4.53815 -2.12802,6.8435c-0.78995,2.30535 -1.81365,5.50543 -3.07111,9.60025c-1.25746,4.09482 -1.99904,7.23042 -2.22474,9.4068c-0.2257,2.17638 -0.41109,3.47415 -0.55619,3.8933c-0.14509,0.41915 -0.43528,0.91086 -0.87055,1.4751c-0.43528,0.56425 -1.03983,0.84637 -1.81365,0.84637c-1.51541,0 -2.27311,-1.61213 -2.27311,-4.8364c0,-2.03129 0.37079,-4.22379 1.11237,-6.5775c0.74158,-2.35371 1.34613,-4.33664 1.81365,-5.94877c0.46752,-1.61213 1.10431,-3.54669 1.91038,-5.80368c0.80607,-2.25699 1.80559,-5.22331 2.99857,-8.89897c1.19298,-3.67566 1.98292,-7.60927 2.36984,-11.80081c0,-1.35419 -0.16927,-2.1522 -0.50782,-2.39402c-0.33855,-0.24182 -0.9431,-0.36273 -1.81365,-0.36273c-0.87055,0 -2.18444,0.56425 -3.94167,1.69274c-1.75723,1.12849 -3.53863,2.7245 -5.34422,4.78804c-4.03033,4.73967 -7.06114,10.55947 -9.09243,17.4594c-0.58037,2.06353 -1.12849,3.83688 -1.64438,5.32004c-0.51588,1.48316 -1.20104,3.51445 -2.05547,6.09386c-0.85443,2.57941 -1.53153,4.84446 -2.03129,6.79514c-0.49976,1.95068 -0.93504,3.18396 -1.30583,3.69985c-0.37079,0.51588 -0.97534,0.77382 -1.81365,0.77382c-1.51541,0 -2.33759,-0.82219 -2.46656,-2.46656c0.77382,-5.41677 1.93456,-10.2048 3.48221,-14.36411c1.54765,-4.1593 2.80511,-7.46418 3.77239,-9.91462c0.96728,-2.45044 1.90232,-5.21525 2.80511,-8.29442c0.90279,-3.07917 1.35419,-5.73113 1.35419,-7.95588c0,-2.22474 -0.69322,-3.33712 -2.07965,-3.33712c-3.80463,0 -8.80225,6.25508 -14.99284,18.76523c-3.32099,6.67423 -5.33616,11.07535 -6.0455,13.20337c-0.70934,2.12802 -1.25746,3.75627 -1.64438,4.88476c-2.12802,6.67423 -4.14318,10.01135 -6.0455,10.01135c-0.64485,0 -1.20104,-0.13703 -1.66856,-0.41109c-0.46752,-0.27406 -0.70128,-0.60455 -0.70128,-0.99146z" data-paper-data="{&quot;elementType&quot;:&quot;letter&quot;,&quot;baseline&quot;:51.513671875,&quot;baselineProportion&quot;:0.9732472324723247,&quot;fontSize&quot;:100}"></path><path d="M344.55799,253.11948v-0.96728c0,-0.4514 -0.24182,-1.54765 -0.72546,-3.28875c0,-0.80607 0.27406,-1.53959 0.82219,-2.20056c0.54813,-0.66097 1.21716,-0.99146 2.00711,-0.99146c0.78995,0 1.44286,0.49976 1.95874,1.49928c0.51588,0.99952 0.77382,2.09577 0.77382,3.28875c0,1.19298 -1.51541,8.31861 -4.54622,21.37688c-3.03081,13.05828 -4.54622,19.93403 -4.54622,20.62724c0,0.69322 0.32243,1.03983 0.96728,1.03983c0.41915,0 1.01564,-0.41109 1.78947,-1.23328c0.77382,-0.82219 1.4348,-1.23328 1.98292,-1.23328c1.06401,0 1.59601,0.66904 1.59601,2.00711c0,1.33807 -0.99952,2.50687 -2.99857,3.50639c-1.99904,0.99952 -3.44996,1.49928 -4.35276,1.49928c-2.25699,0 -3.38548,-1.80559 -3.38548,-5.41677c0,-0.74158 0.15315,-1.57183 0.45946,-2.49075c0.30631,-0.91892 0.62873,-2.1925 0.96728,-3.82076c0.33855,-1.62825 0.82219,-3.84494 1.45092,-6.65005c0.62873,-2.80511 1.27359,-5.70695 1.93456,-8.70552c0.66097,-2.99857 1.46704,-6.63393 2.4182,-10.90608c0.95116,-4.27215 1.42674,-6.58556 1.42674,-6.94023zM351.37731,230.53349c1.90232,0 2.85348,0.95116 2.85348,2.85348c0,2.77287 -0.96728,4.33664 -2.90184,4.69131c-0.54813,0.09673 -1.14461,0.14509 -1.78947,0.14509c-0.64485,0 -1.28971,-0.32243 -1.93456,-0.96728c-0.64485,-0.64485 -0.96728,-1.4751 -0.96728,-2.49075c0,-1.01564 0.49976,-1.97486 1.49928,-2.87766c0.99952,-0.90279 2.07965,-1.35419 3.24039,-1.35419" data-paper-data="{&quot;elementType&quot;:&quot;letter&quot;,&quot;baseline&quot;:67.1875,&quot;baselineProportion&quot;:0.9856733524355301,&quot;fontSize&quot;:100}"></path><path d="M368.50242,296.88889l2.22474,-11.80081c1.16074,-6.02938 1.95068,-10.30959 2.36984,-12.84064c0.41915,-2.53105 0.89473,-5.32004 1.42674,-8.36697c0.532,-3.04693 1.62019,-7.42387 3.26457,-13.13082c-0.06449,-0.16121 -0.09673,-0.30631 -0.09673,-0.43528v-0.48364c0,-1.54765 0.59649,-2.66002 1.78947,-3.33712c0.35467,-0.2257 0.72546,-0.33855 1.11237,-0.33855c1.38643,0 2.07965,0.99952 2.07965,2.99857c0,1.16074 -0.46752,3.24845 -1.40256,6.26314c-0.93504,3.01469 -1.6605,5.81174 -2.17638,8.39115c0.4514,-0.74158 1.00758,-1.67662 1.66856,-2.80511c0.66097,-1.12849 1.70886,-2.77287 3.14366,-4.93313c1.4348,-2.16026 3.24039,-4.21573 5.41677,-6.16641c2.17638,-1.95068 4.40112,-2.92602 6.67423,-2.92602c2.27311,0 4.00615,0.61261 5.19913,1.83783c0.4514,0.41915 0.6771,0.95116 0.6771,1.59601c0,0.64485 -0.29018,1.22522 -0.87055,1.7411c-0.58037,0.51588 -1.17686,0.77382 -1.78947,0.77382c-0.61261,0 -1.2091,-0.16927 -1.78947,-0.50782c-0.58037,-0.33855 -1.22522,-0.50782 -1.93456,-0.50782c-0.70934,0 -1.83783,0.58037 -3.38548,1.7411c-6.15835,4.48173 -11.23657,13.36458 -15.23466,26.64856c-1.06401,3.54669 -1.70886,5.98907 -1.93456,7.32714c-0.2257,1.33807 -0.41915,2.42626 -0.58037,3.26457c-0.96728,5.19107 -2.45044,7.7866 -4.44949,7.7866c-0.93504,0 -1.40256,-0.59649 -1.40256,-1.78947z" data-paper-data="{&quot;elementType&quot;:&quot;letter&quot;,&quot;baseline&quot;:51.416015625,&quot;baselineProportion&quot;:0.9696132596685083,&quot;fontSize&quot;:100}"></path><path d="M417.45103,297.08235c-3.77239,0 -5.65859,-2.36984 -5.65859,-7.10951c0,-4.73967 1.76529,-10.55141 5.29586,-17.43522c3.53057,-6.88381 7.68181,-12.83258 12.45373,-17.84631c4.77191,-5.01373 8.66522,-7.5206 11.6799,-7.5206c3.01469,0 4.73161,1.32195 5.15077,3.96585c0.12897,0.80607 0.2257,1.6605 0.29018,2.56329c0.29018,-0.19346 0.64485,-0.29018 1.06401,-0.29018c1.51541,0 2.27311,0.72546 2.27311,2.17638v0.38691c0,0.09673 -0.40303,1.54765 -1.2091,4.35276c-0.80607,2.80511 -1.72498,7.4803 -2.75675,14.02556c-1.03177,6.54526 -1.54765,12.13936 -1.54765,16.7823c0.29018,0.19346 0.62873,0.41109 1.01564,0.65291c0.38691,0.24182 0.87055,0.61261 1.45092,1.11237c0.58037,0.49976 0.87055,1.08819 0.87055,1.76529c0,0.6771 -0.20958,1.28165 -0.62873,1.81365c-0.41915,0.532 -1.01564,0.79801 -1.78947,0.79801c-1.57989,0 -3.00663,-0.80607 -4.28021,-2.4182c-1.27359,-1.61213 -1.91038,-3.35324 -1.91038,-5.22331c0,-4.03033 1.09625,-10.9625 3.28875,-20.79652c-2.74063,5.73919 -6.28732,11.26881 -10.64008,16.58885c-4.35276,5.32004 -7.35939,8.59267 -9.01988,9.81789c-1.6605,1.22522 -3.45803,1.83783 -5.39259,1.83783M416.72557,290.16629c0,1.19298 0.49976,1.78947 1.49928,1.78947c0.70934,0 1.30583,-0.24182 1.78947,-0.72546c6.67423,-5.73919 12.65524,-13.68701 17.94304,-23.84345c2.99857,-5.80368 4.58652,-9.14079 4.76385,-10.01135c0.17733,-0.87055 0.266,-1.61213 0.266,-2.22474c0,-0.61261 -0.16121,-1.19298 -0.48364,-1.7411c-0.32243,-0.54813 -0.77382,-0.82219 -1.35419,-0.82219c-0.58037,0 -1.4348,0.30631 -2.56329,0.91892c-2.48268,1.35419 -5.53768,4.23991 -9.16498,8.65715c-3.6273,4.41724 -6.65005,9.2214 -9.06825,14.41247c-2.4182,5.19107 -3.6273,9.72116 -3.6273,13.59028z" data-paper-data="{&quot;elementType&quot;:&quot;letter&quot;,&quot;baseline&quot;:50.390625,&quot;baselineProportion&quot;:0.9961389961389961,&quot;fontSize&quot;:100}"></path></g></g></g></g></g></svg>